<svg viewBox="0 0 500 90" fill="none" xmlns="http://www.w3.org/2000/svg">
<g clip-path="url(#clip0_413_4)">
<path d="M51.6541 29.4414C55.4482 29.4414 58.524 26.3656 58.524 22.5715C58.524 18.7773 55.4482 15.7015 51.6541 15.7015C47.8599 15.7015 44.7842 18.7773 44.7842 22.5715C44.7842 26.3656 47.8599 29.4414 51.6541 29.4414Z" fill="white"/>
<path d="M73.3325 89.7516C58.005 89.3928 45.9292 76.485 45.9292 61.1498V35.8838H57.3791V61.2719C57.3791 70.2792 64.3711 77.9582 73.3707 78.3017C82.8359 78.6605 90.6447 71.0654 90.6447 61.6841V41.6164C90.6447 38.4562 93.2095 35.8914 96.3696 35.8914C99.5298 35.8914 102.095 38.4562 102.095 41.6164V61.6841C102.095 77.3933 89.1257 90.1332 73.3402 89.7592L73.3325 89.7516Z" fill="white"/>
<path d="M124.445 89.1563H112.995V43.1584C112.995 34.1511 106.003 26.4721 97.0032 26.1286C87.538 25.7698 79.7292 33.3649 79.7292 42.7462V62.8216C79.7292 65.9817 77.1644 68.5465 74.0042 68.5465C70.8441 68.5465 68.2793 65.9817 68.2793 62.8216V43.2729C68.2793 27.9377 80.3551 15.0375 95.6826 14.6711C111.476 14.2971 124.437 27.037 124.437 42.7462V89.1563H124.445Z" fill="white"/>
<path d="M42.0744 89.9196H36.2579C16.2664 89.9196 0 73.6531 0 53.6617V0H11.4499V53.6617C11.4499 67.3404 22.5791 78.4697 36.2579 78.4697H42.0744V89.9196Z" fill="white"/>
<path d="M147.68 0H136.23V89.9195H147.68V0Z" fill="white"/>
<path d="M195.067 89.9196H178.038L147.68 62.3331L141.765 56.9593L147.68 51.6847L171.801 30.1971H189.014L158.977 56.9593L195.067 89.9196Z" fill="white"/>
<path d="M354.785 23.7164C336.74 23.7164 322.062 38.3951 322.062 56.4325C322.062 74.4698 336.74 89.1562 354.785 89.1562C372.83 89.1562 387.501 74.4775 387.501 56.4325C387.501 38.3875 372.823 23.7164 354.785 23.7164V23.7164ZM354.785 77.7063C343.053 77.7063 333.511 68.1648 333.511 56.4325C333.511 44.7002 343.053 35.1663 354.785 35.1663C366.517 35.1663 376.051 44.7078 376.051 56.4325C376.051 68.1571 366.51 77.7063 354.785 77.7063Z" fill="white"/>
<path d="M457.643 58.6003C458.719 57.4477 459.269 55.9058 459.17 54.3333C458.078 37.1662 443.735 23.7164 426.515 23.7164C409.294 23.7164 393.791 38.3951 393.791 56.4325C393.791 74.4698 408.47 89.1562 426.515 89.1562C438.331 89.1562 449.063 82.9046 454.888 72.7295H440.209C436.446 75.8972 431.637 77.7063 426.515 77.7063C416.279 77.7063 407.707 70.4395 405.691 60.7834L453.498 60.4247C455.071 60.4094 456.574 59.7529 457.643 58.6003V58.6003ZM406.462 49.3259C409.393 41.082 417.279 35.1663 426.515 35.1663C435.751 35.1663 443.438 40.9065 446.46 49.0283L406.462 49.3259Z" fill="white"/>
<path d="M254.729 23.7164C236.684 23.7164 222.005 38.3951 222.005 56.4325C222.005 74.4698 236.684 89.1562 254.729 89.1562C272.774 89.1562 287.453 74.4775 287.453 56.4325C287.453 38.3875 272.774 23.7164 254.729 23.7164V23.7164ZM254.729 77.7063C242.997 77.7063 233.455 68.1648 233.455 56.4325C233.455 44.7002 242.997 35.1663 254.729 35.1663C266.461 35.1663 276.003 44.7078 276.003 56.4325C276.003 68.1571 266.461 77.7063 254.729 77.7063Z" fill="white"/>
<path d="M287.453 55.5775H276.003V89.1561H287.453V55.5775Z" fill="white"/>
<path d="M333.473 0H322.023V57.6386H333.473V0Z" fill="white"/>
<path d="M479.207 0H467.757V89.1562H479.207V0Z" fill="white"/>
<path d="M500 0H488.55V89.1562H500V0Z" fill="white"/>
</g>
<defs>
<clipPath id="clip0_413_4">
<rect width="500" height="89.9195" fill="white"/>
</clipPath>
</defs>
</svg>