<svg viewBox="0 0 300 54" fill="none" xmlns="http://www.w3.org/2000/svg">
<g clip-path="url(#clip0_465_262)">
<path d="M30.9926 17.6649C33.269 17.6649 35.1145 15.8194 35.1145 13.5429C35.1145 11.2664 33.269 9.42096 30.9926 9.42096C28.7161 9.42096 26.8706 11.2664 26.8706 13.5429C26.8706 15.8194 28.7161 17.6649 30.9926 17.6649Z" fill="#0074FF"/>
<path d="M43.9996 53.851C34.8031 53.6357 27.5576 45.8911 27.5576 36.6899V21.5303H34.4275V36.7632C34.4275 42.1676 38.6228 46.775 44.0225 46.9811C49.7016 47.1963 54.3869 42.6393 54.3869 37.0105V24.9699C54.3869 23.0738 55.9258 21.5349 57.8219 21.5349C59.718 21.5349 61.2568 23.0738 61.2568 24.9699V37.0105C61.2568 46.4361 53.4755 54.08 44.0042 53.8556L43.9996 53.851Z" fill="#0074FF"/>
<path d="M74.6667 53.4938H67.7968V25.895C67.7968 20.4907 63.6016 15.8833 58.2019 15.6772C52.5227 15.4619 47.8374 20.019 47.8374 25.6477V37.693C47.8374 39.589 46.2986 41.1279 44.4025 41.1279C42.5064 41.1279 40.9675 39.589 40.9675 37.693V25.9637C40.9675 16.7626 48.213 9.02251 57.4095 8.80267C66.8854 8.57825 74.6622 16.2222 74.6622 25.6477V53.4938H74.6667Z" fill="#0074FF"/>
<path d="M25.2446 53.9517H21.7547C9.75986 53.9517 0 44.1919 0 32.197V0H6.86991V32.197C6.86991 40.4043 13.5475 47.0818 21.7547 47.0818H25.2446V53.9517Z" fill="#333333"/>
<path d="M88.6082 0H81.7383V53.9517H88.6082V0Z" fill="#333333"/>
<path d="M117.04 53.9518H106.822L88.608 37.3998L85.0586 34.1756L88.608 31.0108L103.081 18.1183H113.408L95.3864 34.1756L117.04 53.9518Z" fill="#333333"/>
<path d="M212.871 14.2299C202.044 14.2299 193.237 23.0371 193.237 33.8595C193.237 44.6819 202.044 53.4937 212.871 53.4937C223.698 53.4937 232.501 44.6865 232.501 33.8595C232.501 23.0325 223.694 14.2299 212.871 14.2299ZM212.871 46.6238C205.832 46.6238 200.107 40.8989 200.107 33.8595C200.107 26.8201 205.832 21.0998 212.871 21.0998C219.911 21.0998 225.631 26.8247 225.631 33.8595C225.631 40.8943 219.906 46.6238 212.871 46.6238Z" fill="#333333"/>
<path d="M274.586 35.1602C275.232 34.4686 275.561 33.5435 275.502 32.6C274.847 22.2997 266.241 14.2299 255.909 14.2299C245.577 14.2299 236.275 23.0371 236.275 33.8595C236.275 44.6819 245.082 53.4937 255.909 53.4937C262.999 53.4937 269.438 49.7427 272.933 43.6377H264.125C261.867 45.5383 258.982 46.6238 255.909 46.6238C249.767 46.6238 244.624 42.2637 243.415 36.4701L272.099 36.2548C273.042 36.2456 273.945 35.8518 274.586 35.1602ZM243.877 29.5956C245.636 24.6492 250.367 21.0998 255.909 21.0998C261.451 21.0998 266.063 24.5439 267.876 29.417L243.877 29.5956Z" fill="#333333"/>
<path d="M152.837 14.2299C142.01 14.2299 133.203 23.0371 133.203 33.8595C133.203 44.6819 142.01 53.4937 152.837 53.4937C163.664 53.4937 172.472 44.6865 172.472 33.8595C172.472 23.0325 163.664 14.2299 152.837 14.2299ZM152.837 46.6238C145.798 46.6238 140.073 40.8989 140.073 33.8595C140.073 26.8201 145.798 21.0998 152.837 21.0998C159.877 21.0998 165.602 26.8247 165.602 33.8595C165.602 40.8943 159.877 46.6238 152.837 46.6238Z" fill="#333333"/>
<path d="M172.471 33.3466H165.602V53.4937H172.471V33.3466Z" fill="#333333"/>
<path d="M200.084 0H193.214V34.5832H200.084V0Z" fill="#333333"/>
<path d="M287.524 0H280.654V53.4937H287.524V0Z" fill="#333333"/>
<path d="M300 0H293.13V53.4937H300V0Z" fill="#333333"/>
</g>
<defs>
<clipPath id="clip0_465_262">
<rect width="300" height="53.9517" fill="white"/>
</clipPath>
</defs>
</svg>
